<svg width="800" height="704" viewBox="0 0 800 704" fill="none" xmlns="http://www.w3.org/2000/svg">
<path d="M735.383 65.633C693.492 23.7421 638.033 0.846201 578.843 0.846201C519.653 0.846201 464.024 23.9117 422.133 65.8026L400.255 87.6809L378.038 65.4634C336.147 23.5725 280.349 0.337402 221.159 0.337402C162.138 0.337402 106.51 23.4029 64.7885 65.1242C22.8975 107.015 -0.167907 162.644 0.00169162 221.834C0.00169162 281.024 23.2367 336.483 65.1277 378.373L383.635 696.88C388.044 701.29 393.98 703.664 399.746 703.664C405.513 703.664 411.449 701.459 415.858 697.05L735.044 379.052C776.935 337.161 800 281.532 800 222.342C800.17 163.152 777.274 107.524 735.383 65.633Z" fill="#E30398"/>
</svg>
